<mxfile host="app.diagrams.net" modified="2024-03-05T16:46:11.641Z" agent="Mozilla/5.0 (Macintosh; Intel Mac OS X 10_15_7) AppleWebKit/537.36 (KHTML, like Gecko) Chrome/122.0.0.0 Safari/537.36" etag="CJmIEL74RdW08IQF63ej" version="24.0.1" type="github">
  <diagram name="Actividad1" id="LUFSYIGvyXg-UxVBX4yC">
    <mxGraphModel dx="858" dy="549" grid="1" gridSize="10" guides="1" tooltips="1" connect="1" arrows="1" fold="1" page="1" pageScale="1" pageWidth="827" pageHeight="1169" math="0" shadow="0">
      <root>
        <mxCell id="0" />
        <mxCell id="1" parent="0" />
        <mxCell id="Dgt4oroOp_vrBVAg9OYl-1" value="Paciente" style="whiteSpace=wrap;html=1;align=center;fillColor=#dae8fc;strokeColor=#6c8ebf;" vertex="1" parent="1">
          <mxGeometry x="360" y="270" width="100" height="40" as="geometry" />
        </mxCell>
        <mxCell id="Dgt4oroOp_vrBVAg9OYl-3" style="edgeStyle=orthogonalEdgeStyle;rounded=0;orthogonalLoop=1;jettySize=auto;html=1;entryX=0;entryY=0.5;entryDx=0;entryDy=0;endArrow=none;endFill=0;fillColor=#dae8fc;strokeColor=#6c8ebf;" edge="1" parent="1" source="Dgt4oroOp_vrBVAg9OYl-2" target="Dgt4oroOp_vrBVAg9OYl-1">
          <mxGeometry relative="1" as="geometry" />
        </mxCell>
        <mxCell id="Dgt4oroOp_vrBVAg9OYl-2" value="Id_Paciente" style="ellipse;whiteSpace=wrap;html=1;align=center;fontStyle=4;fillColor=#dae8fc;strokeColor=#6c8ebf;" vertex="1" parent="1">
          <mxGeometry x="160" y="270" width="100" height="40" as="geometry" />
        </mxCell>
      </root>
    </mxGraphModel>
  </diagram>
</mxfile>
